<?xml version="1.0" standalone="no"?>
<!DOCTYPE svg PUBLIC "-//W3C//DTD SVG 1.1//EN" "http://www.w3.org/Graphics/SVG/1.1/DTD/svg11.dtd" >
<svg xmlns="http://www.w3.org/2000/svg" xmlns:xlink="http://www.w3.org/1999/xlink" version="1.1">
<metadata></metadata>
<defs>
<font id="game_of_thronesregular" horiz-adv-x="1957" >
<font-face units-per-em="2048" ascent="2048" descent="0" />
<missing-glyph horiz-adv-x="508" />
<glyph horiz-adv-x="0" />
<glyph unicode="&#xd;" horiz-adv-x="508" />
<glyph unicode=" "  horiz-adv-x="508" />
<glyph unicode="&#x09;" horiz-adv-x="508" />
<glyph unicode="&#xa0;" horiz-adv-x="508" />
<glyph unicode="#" horiz-adv-x="17747" d="M18 742q0 -576 362 -869q317 -258 851 -258q475 0 662 151v748q-8 24 15 56q47 64 204 104h-694q157 -40 204 -104q23 -32 15 -56v-670q-118 -110 -333 -101q-386 0 -704 273q-345 297 -345 722q0 445 251 698q249 251 679 251q357 0 543 -238q93 -118 114 -237l73 479 q-150 46 -752 91q-747 0 -1021 -520q-137 -260 -124 -520zM2002 -33h461q-30 7 -60 23q-61 32 -61 77l166 497h434l202 -521q-85 -24 -121 -76h497q-31 7 -68 27q-76 40 -110 106q-54 105 -602 1440l-539 -1428q-10 -31 -40 -64q-59 -67 -159 -81zM2532 660l196 566 l190 -567zM3647 -14h446q-31 10 -64 33q-64 47 -69 110v50l109 798l517 -974l6 -5h1v-1l1 2l522 942l181 -780v-50q-5 -63 -69 -110q-32 -23 -63 -34h445q-31 11 -63 34q-64 47 -69 110l-235 1411l-651 -1279l-632 1297l-181 -1411q-5 -63 -69 -110q-32 -23 -63 -33z M5718 1512q125 -36 160 -107q2 -1173 2 -1283q0 -68 -67 -118q-34 -25 -68 -37h839l32 272q-26 -52 -73 -104q-96 -104 -205 -104q-110 0 -204 66q-47 33 -72 66v584h251q118 0 169 -83q25 -42 27 -84l38 308q-61 -50 -157 -52h-328v588h299q95 0 139 -86q22 -43 25 -85 l59 287l-59 -28h-807zM7225 688q0 -190 144 -294q115 -83 260 -83q133 0 246 95q131 110 131 280q0 174 -127 295q-115 111 -250 111q-101 5 -202 -42q-202 -95 -202 -362zM7323 701q0 158 78 249q55 64 143 89v-677q-88 26 -143 90q-78 92 -78 249zM7567 356v688q13 3 26 5 v-698q-13 2 -26 5zM7631 349v700q15 -2 31 -5v-692q-16 -2 -31 -3zM7685 356v681q88 -27 144 -94q80 -95 80 -257t-80 -250q-56 -62 -144 -80zM8016 1078q62 -18 79 -53q0 -222 1 -404h-1v-238q-2 -32 -34 -55q-16 -12 -32 -17h224q-16 5 -32 17q-32 23 -35 55v13l1 12v290 h124q59 0 84 -41q13 -21 13 -42l20 153q-31 -25 -78 -26h-163v292h148q47 0 69 -42q11 -22 12 -43l30 143l-30 -14h-400zM8600 2002l77 -371q4 55 32 110q57 111 180 111h385v-24q1 -577 2 -1053v-620q-7 -82 -91 -143q-42 -31 -82 -45h583q-41 14 -83 45q-84 61 -90 143 v620q1 476 2 1053v24h7160q123 0 180 -111q28 -55 32 -110l77 371l-77 -35h-8210zM9694 -33h451q-32 11 -64 35q-65 47 -70 111v662h865v-662q-5 -64 -70 -111q-32 -24 -64 -35h451q-32 11 -64 35q-65 47 -70 111v1282q5 63 70 110q32 24 64 35h-451q32 -11 64 -35 q65 -47 70 -110v-511h-865v511q5 63 70 110q32 24 64 35h-451q32 -11 64 -35q65 -47 70 -110v-1282q-5 -64 -70 -111q-32 -24 -64 -35zM11283 -33h447q-31 11 -63 35q-65 46 -70 110v526q202 0 343 -108q71 -55 101 -109q68 -113 162 -227q189 -227 321 -227t199 34 q33 17 40 34q-149 -32 -329 144q-100 98 -233 293q-102 151 -181 224q162 145 217 315q27 85 21 140q0 304 -330 372q-165 34 -331 7h-314q31 -11 63 -34q65 -47 70 -111v-1273q-5 -64 -70 -110q-32 -24 -63 -35zM11597 748q6 494 6 616q0 83 35 98q14 6 125 6 q112 0 201 -94q110 -116 110 -319q0 -187 -107 -265q-53 -40 -107 -42h-263zM12564 728q0 -384 290 -594q230 -167 522 -167q268 0 496 192q264 221 264 563q0 350 -256 595q-232 222 -504 222q-203 12 -406 -84q-406 -191 -406 -727zM12761 754q0 317 157 499 q111 130 287 180v-1363q-176 52 -287 182q-157 185 -157 502zM13252 58v1386q26 6 52 9v-1404q-24 3 -52 9zM13381 45v1409q30 -4 62 -11v-1393q-31 -4 -62 -5zM13490 58v1372q178 -55 290 -190q160 -191 160 -518q0 -326 -160 -502q-112 -124 -290 -162zM14199 -33h451 q-32 11 -64 35q-65 47 -70 111v1041l1143 -1187v2l1 -2v1427q5 64 70 111q32 24 64 35h-451q31 -11 64 -35q65 -47 70 -111v-1055l-1144 1201v-1427q-5 -64 -70 -111q-33 -24 -64 -35zM15910 1513q123 -36 157 -106q2 -1179 2 -1287q0 -67 -66 -117q-33 -24 -66 -36h825 l32 267q-26 -51 -72 -102q-94 -102 -202 -102t-201 65q-46 33 -70 65v575h246q117 0 167 -82q25 -41 26 -82l38 303q-60 -50 -154 -52h-323v603h293q94 0 138 -84q21 -42 24 -84l58 283l-58 -27h-794zM16956 80q19 -28 60 -56q82 -57 194 -57q174 0 333 105q199 131 199 350 q0 138 -116 273q-55 64 -219 198q-269 222 -269 375q0 93 65 144q69 53 198 53q117 0 188 -98q57 -78 57 -159l48 272q-9 15 -51 30q-84 30 -248 30q-189 0 -308 -105q-110 -96 -110 -233q0 -117 87 -231q58 -77 216 -217q162 -145 220 -218q91 -114 91 -220 q0 -107 -113 -183q-98 -65 -195 -65q-108 0 -192 60q-111 79 -111 230q-37 -165 -24 -278z" />
<glyph unicode="A" horiz-adv-x="1988" d="M5 0h600q-39 9 -78 29q-79 42 -79 101l216 647h565l263 -679q-110 -31 -157 -98h647q-40 9 -89 35q-98 52 -142 138q-71 137 -785 1875l-702 -1860q-13 -40 -52 -84q-77 -87 -207 -104zM696 902l255 690l247 -692z" />
<glyph unicode="B" horiz-adv-x="1264" d="M5 0l31 13q-18 -9 -31 -13h558h24q251 0 415 82q250 126 250 424q1 12 1 25q0 65 -29 158q-71 221 -282 410q-2 3 -8 7q6 3 8 6q195 149 239 502q0 278 -267 377q-144 53 -431 57h-478q13 -4 31 -13l-31 13q41 -17 83 -51q84 -68 90 -150v-1646q-6 -82 -90 -150 q-42 -34 -83 -51zM421 1031h366q69 -3 139 -54q140 -102 140 -345q0 -265 -143 -416q-117 -123 -262 -123q-153 0 -175 8q-57 21 -57 128q0 159 -8 802zM421 1180q8 480 8 639q0 107 57 128q22 8 175 8q148 0 238 -87q120 -117 120 -380q0 -144 -116 -240q-58 -48 -116 -68 h-366z" />
<glyph unicode="C" horiz-adv-x="1815" d="M17 1065q-1 21 -1 42q0 225 118 449q259 492 965 492q569 -43 711 -86l-68 -453q-21 112 -109 224q-175 224 -512 224q-407 0 -642 -236q-238 -240 -238 -660q0 -402 326 -682q301 -258 666 -258q72 5 174 50q203 91 350 294l53 -306q-49 -40 -155 -80q-211 -79 -491 -79 q-31 0 -66 1q-480 17 -761 261q-320 277 -320 803z" />
<glyph unicode="D" d="M5 0h814q488 0 787 253q334 284 334 819q1 21 1 42q0 223 -115 446q-253 488 -943 488h-878q145 -37 188 -96q22 -29 14 -52v-1773q-10 -52 -100 -93zM443 211v1600q164 134 418 134q398 0 627 -232q233 -234 233 -645q0 -395 -319 -682q-297 -268 -651 -268 q-15 -1 -29 -1q-177 0 -279 94z" />
<glyph unicode="E" horiz-adv-x="1179" d="M5 2012h1051l77 36l-77 -374q-4 56 -33 111q-57 112 -181 112h-389v-766h428q124 3 204 68l-50 -401q-2 55 -35 109q-66 108 -220 108h-327v-760q33 -43 94 -86q123 -86 265 -86q143 0 267 135q62 68 95 135l-41 -353h-1092q43 15 87 47q88 66 88 155q0 142 -3 1671 q-45 92 -208 139z" />
<glyph unicode="F" horiz-adv-x="1138" d="M5 2012q163 -47 208 -139q1 -581 2 -1060h-1v-624q-7 -83 -91 -144q-42 -31 -83 -45h586q-41 14 -83 45q-85 61 -91 144v33l1 33v760h327q154 0 220 -108q33 -54 35 -109l50 401q-80 -65 -204 -68h-428v766h389q124 0 181 -112q29 -55 33 -111l77 374l-77 -36h-1051z" />
<glyph unicode="G" horiz-adv-x="2001" d="M17 1065q-1 21 -1 42q0 225 118 449q259 492 965 492q569 -43 712 -86l-69 -453q-21 112 -109 224q-175 225 -512 225q-407 0 -642 -237q-238 -240 -238 -660q0 -402 326 -682q301 -258 666 -258q16 -1 32 -1q179 0 283 96v633q7 23 -15 53q-44 61 -192 98h655 q-148 -37 -192 -98q-23 -30 -15 -53v-707q-44 -35 -144 -71q-201 -71 -481 -71q-505 0 -805 243q-342 277 -342 822z" />
<glyph unicode="H" horiz-adv-x="1962" d="M5 0h587q-41 14 -84 45q-84 61 -90 144v863h1126v-863q-6 -83 -90 -144q-43 -31 -84 -45h587q-41 14 -83 45q-85 61 -91 144v1670q6 83 91 144q42 31 83 45h-587q41 -14 84 -45q84 -61 90 -144v-665h-1126v665q6 83 90 144q43 31 84 45h-587q41 -14 83 -45 q85 -61 91 -144v-1670q-6 -83 -91 -144q-42 -31 -83 -45z" />
<glyph unicode="I" horiz-adv-x="597" d="M5 0h587q-41 14 -84 45q-84 61 -90 144v1670q6 83 90 144q43 31 84 45h-587q41 -14 83 -45q85 -61 91 -144v-1670q-6 -83 -91 -144q-42 -31 -83 -45z" />
<glyph unicode="J" horiz-adv-x="838" d="M5 88q9 -22 52 -44q88 -44 261 -44h6q211 0 294 152q42 78 41 156v1551q6 83 91 144q42 31 83 45h-587q41 -14 83 -45q85 -61 91 -144v-1494q-43 -179 -113 -239q-62 -53 -172 -53q-58 0 -130 15z" />
<glyph unicode="K" d="M5 0h587q-41 14 -84 45q-84 61 -91 144v692l129 126l888 -907q20 -29 20 -49q0 -21 -21 -33q-21 -11 -49 -11h568q-192 48 -408 298l-843 854l603 591q216 249 408 298h-568q31 0 52 -13q18 -11 18 -31q0 -25 -29 -62l-766 -756l4 704q31 111 169 158h-587q41 -14 83 -45 q85 -61 91 -144v-1670q-6 -83 -91 -144q-42 -31 -83 -45z" />
<glyph unicode="L" horiz-adv-x="1200" d="M5 2048q166 -48 211 -142q3 -1556 3 -1701q0 -90 -89 -157q-44 -33 -89 -48h1112l42 359q-34 -68 -97 -137q-126 -137 -271 -137q-146 0 -270 87q-63 44 -96 88v1652q57 92 208 136h-664zM454 205q0 145 3 1701q2 2 4 6z" />
<glyph unicode="M" horiz-adv-x="2568" d="M5 23h581q-41 14 -83 45q-83 60 -90 143v65l141 1040l675 -1269l7 -7h1v-1l2 2l680 1228l235 -1016v-66q-6 -82 -90 -143q-42 -30 -82 -44h580q-40 14 -82 44q-84 61 -90 143l-305 1837l-849 -1641l-824 1665l-235 -1837q-6 -83 -90 -143q-41 -31 -82 -45z" />
<glyph unicode="N" horiz-adv-x="2087" d="M5 0h587q-41 14 -83 45q-85 61 -91 144v1356l1489 -1545v2l1 -2v1859q6 83 91 144q42 31 83 45h-587q41 -14 83 -45q85 -61 91 -144v-1375l-1490 1564v-1859q-6 -83 -91 -144q-42 -31 -83 -45z" />
<glyph unicode="O" horiz-adv-x="2058" d="M5 990q0 -500 377 -773q300 -217 680 -217q350 0 647 249q343 288 343 734q0 456 -333 775q-303 289 -657 289q-30 2 -60 2l-468 -111q-529 -249 -529 -948zM261 1024q0 413 204 651q145 168 375 234v-1775q-230 67 -375 237q-204 240 -204 653zM901 118v1806q33 7 67 11 v-1829q-32 5 -67 12zM1069 101v1835q40 -5 81 -14v-1815q-43 -5 -81 -6zM1211 118v1787q231 -71 378 -247q208 -249 208 -675q0 -425 -208 -654q-147 -162 -378 -211z" />
<glyph unicode="P" horiz-adv-x="1288" d="M5 0h583q-41 14 -83 44q-84 61 -90 144v686q308 0 460 37q76 19 90 38q212 189 282 410q30 93 30 159q0 13 -1 24q0 396 -431 484q-120 25 -239 25l-191 -16h-410q41 -14 83 -45q84 -61 90 -143v-1659q-6 -83 -90 -144q-42 -30 -83 -44zM415 1017q8 643 8 802 q0 109 45 128q18 8 163 8t262 -123q143 -151 143 -416q0 -243 -139 -345q-70 -51 -140 -54h-342z" />
<glyph unicode="Q" horiz-adv-x="2058" d="M5 990q0 -500 377 -773q300 -217 680 -217q272 0 534 166q35 -26 61 -48q137 -115 225 -116q49 0 137 56q-38 4 -93 32q-110 58 -194 179q320 285 320 714q0 456 -333 775q-303 289 -657 289q-30 2 -60 2l-468 -111q-529 -249 -529 -948zM261 1024q0 413 204 651 q145 168 375 234l61 15q33 7 67 11l101 1q40 -5 81 -14l61 -17q231 -71 378 -247q208 -249 208 -675q0 -387 -174 -612q-75 48 -146 48q-95 0 -183 -88q78 -20 195 -92q-121 -88 -278 -121l-61 -11q-33 -4 -81 -6l-101 5q-32 5 -67 12l-61 16q-230 67 -375 237 q-204 240 -204 653z" />
<glyph unicode="R" horiz-adv-x="1938" d="M5 0h583q-41 14 -83 44q-84 61 -90 144v686q263 0 447 -142q92 -70 131 -141q88 -148 211 -296q246 -295 418 -295t258 44q44 22 53 43q-29 -6 -59 -6q-170 0 -369 194q-131 128 -304 383q-133 196 -236 291q212 189 282 410q30 93 30 159q0 13 -1 24q0 396 -431 484 q-120 25 -239 25l-191 -16h-410q41 -14 83 -45q84 -61 90 -143v-1659q-6 -83 -90 -144q-42 -30 -83 -44zM415 1017q8 643 8 802q0 109 45 128q18 8 163 8t262 -123q143 -151 143 -416q0 -243 -139 -345q-70 -51 -140 -54h-342z" />
<glyph unicode="S" horiz-adv-x="1050" d="M22 147q24 -37 78 -74q107 -73 252 -73q227 0 434 136q259 171 259 456q0 180 -152 356q-71 83 -285 258q-350 288 -350 488q0 121 85 188q89 68 257 68q153 0 246 -127q73 -102 73 -207l63 354q-11 20 -66 39q-109 39 -323 39q-246 0 -401 -136q-143 -126 -143 -304 q0 -153 113 -301q75 -100 281 -283q211 -188 287 -283q118 -149 118 -287q0 -140 -147 -238q-127 -85 -254 -85q-141 0 -250 78q-144 103 -144 300q-35 -160 -35 -281q0 -43 4 -81z" />
<glyph unicode="T" horiz-adv-x="1608" d="M5 2048l77 -374q4 56 32 111q58 112 182 112h386l1 -24q1 -581 2 -1060v-624q-7 -83 -91 -144q-43 -31 -84 -45h587q-41 14 -83 45q-85 61 -91 144v624q1 479 2 1060v24h387q124 0 181 -112q29 -55 33 -111l77 374l-77 -36h-1444z" />
<glyph unicode="U" horiz-adv-x="2048" d="M5 2048q33 -7 69 -33q71 -52 86 -143v-908q0 -494 297 -753q243 -211 592 -211q322 0 559 243q264 270 264 714v907q7 81 90 141q42 29 81 43h-580q40 -9 80 -41q79 -66 79 -183v-867q0 -427 -131 -637q-103 -164 -298 -205l-59 -10q-32 -5 -79 -7l-98 6q-32 4 -66 11 l-58 15q-423 124 -423 867l1 247l2 617q7 82 90 143q42 30 83 44h-581z" />
<glyph unicode="V" horiz-adv-x="2042" d="M5 2048q33 -8 69 -34q73 -52 88 -144l851 -1870v18l8 -18l857 1870q16 92 89 144q37 26 70 34h-593q42 -14 85 -45q85 -61 91 -144l-599 -1383l-599 1383q6 83 92 144q42 31 84 45h-593z" />
<glyph unicode="W" horiz-adv-x="3058" d="M5 2048h593q-42 -14 -84 -45q-86 -61 -92 -144l599 -1383l385 887l123 309l124 -309l384 -887l600 1383q-7 83 -92 144q-43 31 -84 45h592q-33 -8 -69 -34q-73 -52 -88 -144l-851 -1870v18l-8 -18l-508 1097l-508 -1097l-8 18v-18l-851 1870q-15 92 -88 144 q-36 26 -69 34z" />
<glyph unicode="X" horiz-adv-x="1677" d="M5 0h593q-42 14 -84 45q-86 61 -92 145l284 428l132 228l132 -228l285 -428q-10 -134 -128 -190h545q-34 8 -70 34q-73 52 -89 144l-539 902l420 790q16 92 89 144q36 26 70 34h-593q42 -14 84 -45q86 -61 92 -144l-285 -556l-1 -2l-1 2l-308 556q6 83 92 144 q42 31 84 45h-593q33 -8 70 -34q73 -52 89 -144l430 -807l-549 -885q-16 -92 -89 -144q-37 -26 -70 -34z" />
<glyph unicode="Y" horiz-adv-x="1659" d="M5 2048q33 -8 69 -34q73 -52 88 -144l548 -879v-802q-6 -83 -91 -144q-42 -31 -83 -45h587q-41 14 -83 45q-85 61 -91 144v811l547 870q15 92 88 144q37 26 70 34h-592q42 -14 84 -45q86 -61 92 -144l-408 -691l-409 691q7 83 92 144q43 31 84 45h-592z" />
<glyph unicode="Z" horiz-adv-x="1376" d="M5 0h116h1032h79l-79 344q-3 -56 -32 -113q-58 -113 -185 -113h-622l981 1786l76 144h-1280l78 -344q4 57 33 113q58 113 184 113h630l-881 -1677z" />
<glyph unicode="a" horiz-adv-x="1988" d="M5 0h600q-39 9 -78 29q-79 42 -79 101l216 647h565l263 -679q-110 -31 -157 -98h647q-40 9 -89 35q-98 52 -142 138q-71 137 -785 1875l-702 -1860q-13 -40 -52 -84q-77 -87 -207 -104zM696 902l255 690l247 -692z" />
<glyph unicode="b" horiz-adv-x="1264" d="M5 0l31 13q-18 -9 -31 -13h558h24q251 0 415 82q250 126 250 424q1 12 1 25q0 65 -29 158q-71 221 -282 410q-2 3 -8 7q6 3 8 6q195 149 239 502q0 278 -267 377q-144 53 -431 57h-478q13 -4 31 -13l-31 13q41 -17 83 -51q84 -68 90 -150v-1646q-6 -82 -90 -150 q-42 -34 -83 -51zM421 1031h366q69 -3 139 -54q140 -102 140 -345q0 -265 -143 -416q-117 -123 -262 -123q-153 0 -175 8q-57 21 -57 128q0 159 -8 802zM421 1180q8 480 8 639q0 107 57 128q22 8 175 8q148 0 238 -87q120 -117 120 -380q0 -144 -116 -240q-58 -48 -116 -68 h-366z" />
<glyph unicode="c" horiz-adv-x="1815" d="M17 1065q-1 21 -1 42q0 225 118 449q259 492 965 492q569 -43 711 -86l-68 -453q-21 112 -109 224q-175 224 -512 224q-407 0 -642 -236q-238 -240 -238 -660q0 -402 326 -682q301 -258 666 -258q72 5 174 50q203 91 350 294l53 -306q-49 -40 -155 -80q-211 -79 -491 -79 q-31 0 -66 1q-480 17 -761 261q-320 277 -320 803z" />
<glyph unicode="d" d="M5 0h814q488 0 787 253q334 284 334 819q1 21 1 42q0 223 -115 446q-253 488 -943 488h-878q145 -37 188 -96q22 -29 14 -52v-1773q-10 -52 -100 -93zM443 211v1600q164 134 418 134q398 0 627 -232q233 -234 233 -645q0 -395 -319 -682q-297 -268 -651 -268 q-15 -1 -29 -1q-177 0 -279 94z" />
<glyph unicode="e" horiz-adv-x="1179" d="M5 2012h1051l77 36l-77 -374q-4 56 -33 111q-57 112 -181 112h-389v-766h428q124 3 204 68l-50 -401q-2 55 -35 109q-66 108 -220 108h-327v-760q33 -43 94 -86q123 -86 265 -86q143 0 267 135q62 68 95 135l-41 -353h-1092q43 15 87 47q88 66 88 155q0 142 -3 1671 q-45 92 -208 139z" />
<glyph unicode="f" horiz-adv-x="1138" d="M5 2012q163 -47 208 -139q1 -581 2 -1060h-1v-624q-7 -83 -91 -144q-42 -31 -83 -45h586q-41 14 -83 45q-85 61 -91 144v33l1 33v760h327q154 0 220 -108q33 -54 35 -109l50 401q-80 -65 -204 -68h-428v766h389q124 0 181 -112q29 -55 33 -111l77 374l-77 -36h-1051z" />
<glyph unicode="g" horiz-adv-x="2001" d="M17 1065q-1 21 -1 42q0 225 118 449q259 492 965 492q569 -43 712 -86l-69 -453q-21 112 -109 224q-175 225 -512 225q-407 0 -642 -237q-238 -240 -238 -660q0 -402 326 -682q301 -258 666 -258q16 -1 32 -1q179 0 283 96v633q7 23 -15 53q-44 61 -192 98h655 q-148 -37 -192 -98q-23 -30 -15 -53v-707q-44 -35 -144 -71q-201 -71 -481 -71q-505 0 -805 243q-342 277 -342 822z" />
<glyph unicode="h" horiz-adv-x="1962" d="M5 0h587q-41 14 -84 45q-84 61 -90 144v863h1126v-863q-6 -83 -90 -144q-43 -31 -84 -45h587q-41 14 -83 45q-85 61 -91 144v1670q6 83 91 144q42 31 83 45h-587q41 -14 84 -45q84 -61 90 -144v-665h-1126v665q6 83 90 144q43 31 84 45h-587q41 -14 83 -45 q85 -61 91 -144v-1670q-6 -83 -91 -144q-42 -31 -83 -45z" />
<glyph unicode="i" horiz-adv-x="597" d="M5 0h587q-41 14 -84 45q-84 61 -90 144v1670q6 83 90 144q43 31 84 45h-587q41 -14 83 -45q85 -61 91 -144v-1670q-6 -83 -91 -144q-42 -31 -83 -45z" />
<glyph unicode="j" horiz-adv-x="838" d="M5 88q9 -22 52 -44q88 -44 261 -44h6q211 0 294 152q42 78 41 156v1551q6 83 91 144q42 31 83 45h-587q41 -14 83 -45q85 -61 91 -144v-1494q-43 -179 -113 -239q-62 -53 -172 -53q-58 0 -130 15z" />
<glyph unicode="k" d="M5 0h587q-41 14 -84 45q-84 61 -91 144v692l129 126l888 -907q20 -29 20 -49q0 -21 -21 -33q-21 -11 -49 -11h568q-192 48 -408 298l-843 854l603 591q216 249 408 298h-568q31 0 52 -13q18 -11 18 -31q0 -25 -29 -62l-766 -756l4 704q31 111 169 158h-587q41 -14 83 -45 q85 -61 91 -144v-1670q-6 -83 -91 -144q-42 -31 -83 -45z" />
<glyph unicode="l" horiz-adv-x="1200" d="M5 2048q166 -48 211 -142q3 -1556 3 -1701q0 -90 -89 -157q-44 -33 -89 -48h1112l42 359q-34 -68 -97 -137q-126 -137 -271 -137q-146 0 -270 87q-63 44 -96 88v1652q57 92 208 136h-664zM454 205q0 145 3 1701q2 2 4 6z" />
<glyph unicode="m" horiz-adv-x="2568" d="M5 23h581q-41 14 -83 45q-83 60 -90 143v65l141 1040l675 -1269l7 -7h1v-1l2 2l680 1228l235 -1016v-66q-6 -82 -90 -143q-42 -30 -82 -44h580q-40 14 -82 44q-84 61 -90 143l-305 1837l-849 -1641l-824 1665l-235 -1837q-6 -83 -90 -143q-41 -31 -82 -45z" />
<glyph unicode="n" horiz-adv-x="2087" d="M5 0h587q-41 14 -83 45q-85 61 -91 144v1356l1489 -1545v2l1 -2v1859q6 83 91 144q42 31 83 45h-587q41 -14 83 -45q85 -61 91 -144v-1375l-1490 1564v-1859q-6 -83 -91 -144q-42 -31 -83 -45z" />
<glyph unicode="o" horiz-adv-x="2058" d="M5 990q0 -500 377 -773q300 -217 680 -217q350 0 647 249q343 288 343 734q0 456 -333 775q-303 289 -657 289q-30 2 -60 2l-468 -111q-529 -249 -529 -948zM261 1024q0 413 204 651q145 168 375 234v-1775q-230 67 -375 237q-204 240 -204 653zM901 118v1806q33 7 67 11 v-1829q-32 5 -67 12zM1069 101v1835q40 -5 81 -14v-1815q-43 -5 -81 -6zM1211 118v1787q231 -71 378 -247q208 -249 208 -675q0 -425 -208 -654q-147 -162 -378 -211z" />
<glyph unicode="p" horiz-adv-x="1288" d="M5 0h583q-41 14 -83 44q-84 61 -90 144v686q308 0 460 37q76 19 90 38q212 189 282 410q30 93 30 159q0 12 -1 24q0 396 -431 484q-120 25 -239 25l-191 -16h-410q41 -14 83 -45q84 -61 90 -143v-1659q-6 -83 -90 -144q-42 -30 -83 -44zM415 1017q8 643 8 802 q0 109 45 128q18 8 163 8t262 -123q143 -151 143 -416q0 -243 -139 -345q-70 -51 -140 -54h-342z" />
<glyph unicode="q" horiz-adv-x="2058" d="M5 990q0 -500 377 -773q300 -217 680 -217q272 0 534 166q35 -26 61 -48q137 -115 225 -116q49 0 137 56q-38 4 -93 32q-110 58 -194 179q320 285 320 714q0 456 -333 775q-303 289 -657 289q-30 2 -60 2l-468 -111q-529 -249 -529 -948zM261 1024q0 413 204 651 q145 168 375 234l61 15q33 7 67 11l101 1q40 -5 81 -14l61 -17q231 -71 378 -247q208 -249 208 -675q0 -387 -174 -612q-75 48 -146 48q-95 0 -183 -88q78 -20 195 -92q-121 -88 -278 -121l-61 -11q-33 -4 -81 -6l-101 5q-32 5 -67 12l-61 16q-230 67 -375 237 q-204 240 -204 653z" />
<glyph unicode="r" horiz-adv-x="1938" d="M5 0h583q-41 14 -83 44q-84 61 -90 144v686q263 0 447 -142q92 -70 131 -141q88 -148 211 -296q246 -295 418 -295t258 44q44 22 53 43q-29 -6 -59 -6q-170 0 -369 194q-131 128 -304 383q-133 196 -236 291q212 189 282 410q30 93 30 159q0 13 -1 24q0 396 -431 484 q-120 25 -239 25l-191 -16h-410q41 -14 83 -45q84 -61 90 -143v-1659q-6 -83 -90 -144q-42 -30 -83 -44zM415 1017q8 643 8 802q0 109 45 128q18 8 163 8t262 -123q143 -151 143 -416q0 -243 -139 -345q-70 -51 -140 -54h-342z" />
<glyph unicode="s" horiz-adv-x="1050" d="M22 147q24 -37 78 -74q107 -73 252 -73q227 0 434 136q259 171 259 456q0 180 -152 356q-71 83 -285 258q-350 288 -350 488q0 121 85 188q89 68 257 68q153 0 246 -127q73 -102 73 -207l63 354q-11 20 -66 39q-109 39 -323 39q-246 0 -401 -136q-143 -126 -143 -304 q0 -153 113 -301q75 -100 281 -283q211 -188 287 -283q118 -149 118 -287q0 -140 -147 -238q-127 -85 -254 -85q-141 0 -250 78q-144 103 -144 300q-35 -160 -35 -281q0 -43 4 -81z" />
<glyph unicode="t" horiz-adv-x="1608" d="M5 2048l77 -374q4 56 32 111q58 112 182 112h386l1 -24q1 -581 2 -1060v-624q-7 -83 -91 -144q-43 -31 -84 -45h587q-41 14 -83 45q-85 61 -91 144v624q1 479 2 1060v24h387q124 0 181 -112q29 -55 33 -111l77 374l-77 -36h-1444z" />
<glyph unicode="u" horiz-adv-x="2048" d="M5 2048q33 -7 69 -33q71 -52 86 -143v-908q0 -494 297 -753q243 -211 592 -211q322 0 559 243q264 270 264 714v907q7 81 90 141q42 29 81 43h-580q40 -9 80 -41q79 -66 79 -183v-867q0 -427 -131 -637q-103 -164 -298 -205l-59 -10q-32 -5 -79 -7l-98 6q-32 4 -66 11 l-58 15q-423 124 -423 867l1 247l2 617q7 82 90 143q42 30 83 44h-581z" />
<glyph unicode="v" horiz-adv-x="2042" d="M5 2048q33 -8 69 -34q73 -52 88 -144l851 -1870v18l8 -18l857 1870q16 92 89 144q37 26 70 34h-593q42 -14 85 -45q85 -61 91 -144l-599 -1383l-599 1383q6 83 92 144q42 31 84 45h-593z" />
<glyph unicode="w" horiz-adv-x="3058" d="M5 2048h593q-42 -14 -84 -45q-86 -61 -92 -144l599 -1383l385 887l123 309l124 -309l384 -887l600 1383q-7 83 -92 144q-43 31 -84 45h592q-33 -8 -69 -34q-73 -52 -88 -144l-851 -1870v18l-8 -18l-508 1097l-508 -1097l-8 18v-18l-851 1870q-15 92 -88 144 q-36 26 -69 34z" />
<glyph unicode="x" horiz-adv-x="1677" d="M5 0h593q-42 14 -84 45q-86 61 -92 145l284 428l132 228l132 -228l285 -428q-10 -134 -128 -190h545q-34 8 -70 34q-73 52 -89 144l-539 902l420 790q16 92 89 144q36 26 70 34h-593q42 -14 84 -45q86 -61 92 -144l-285 -556l-1 -2l-1 2l-308 556q6 83 92 144 q42 31 84 45h-593q33 -8 70 -34q73 -52 89 -144l430 -807l-549 -885q-16 -92 -89 -144q-37 -26 -70 -34z" />
<glyph unicode="y" horiz-adv-x="1659" d="M5 2048q33 -8 69 -34q73 -52 88 -144l548 -879v-802q-6 -83 -91 -144q-42 -31 -83 -45h587q-41 14 -83 45q-85 61 -91 144v811l547 870q15 92 88 144q37 26 70 34h-592q42 -14 84 -45q86 -61 92 -144l-408 -691l-409 691q7 83 92 144q43 31 84 45h-592z" />
<glyph unicode="z" horiz-adv-x="1376" d="M5 0h116h1032h79l-79 344q-3 -56 -32 -113q-58 -113 -185 -113h-622l981 1786l76 144h-1280l78 -344q4 57 33 113q58 113 184 113h630l-881 -1677z" />
<glyph unicode="&#x2000;" horiz-adv-x="1025" />
<glyph unicode="&#x2001;" horiz-adv-x="2051" />
<glyph unicode="&#x2002;" horiz-adv-x="1025" />
<glyph unicode="&#x2003;" horiz-adv-x="2051" />
<glyph unicode="&#x2004;" horiz-adv-x="683" />
<glyph unicode="&#x2005;" horiz-adv-x="512" />
<glyph unicode="&#x2006;" horiz-adv-x="341" />
<glyph unicode="&#x2007;" horiz-adv-x="341" />
<glyph unicode="&#x2008;" horiz-adv-x="256" />
<glyph unicode="&#x2009;" horiz-adv-x="410" />
<glyph unicode="&#x200a;" horiz-adv-x="113" />
<glyph unicode="&#x202f;" horiz-adv-x="410" />
<glyph unicode="&#x205f;" horiz-adv-x="512" />
<glyph unicode="&#x25fc;" horiz-adv-x="2050" d="M0 0v2050h2050v-2050h-2050z" />
</font>
</defs>
</svg>
